<svg width="400" height="400" viewBox="0 0 400 400" fill="none" xmlns="http://www.w3.org/2000/svg">
<g clip-path="url(#clip0_58_47)">
<path d="M394.341 151.101C392.39 178.19 381.109 204.509 362.848 224.535C352.554 235.825 339.499 245.427 324.427 247.871C324.395 247.871 324.332 247.902 324.303 247.9C313.728 249.568 303.292 244.057 298.61 234.376C298.275 233.662 297.942 232.918 297.638 232.143C294.574 224.545 293.856 216.156 293.876 207.927C293.995 173.587 307.171 139.422 330.115 113.919C337.589 105.644 346.906 97.8431 358.028 96.9842C370.322 96.0393 382.036 104.249 388.066 115.051C394.098 125.855 395.219 138.764 394.341 151.101Z" fill="#CC6F43"/>
<path d="M394.341 151.101C392.388 178.19 381.109 204.509 362.848 224.536C352.554 235.825 339.499 245.427 324.424 247.871C324.395 247.871 324.332 247.9 324.303 247.9C313.728 249.566 303.292 244.057 298.61 234.376C298.275 233.662 297.942 232.918 297.638 232.143C294.72 224.911 293.93 216.964 293.878 209.118C297.672 213.7 302.941 217.068 308.739 218.358C315.105 219.775 321.844 218.799 327.912 216.412C340.291 211.543 349.897 201.037 355.864 189.105C361.831 177.17 364.481 163.843 366.034 150.581C367.303 139.747 367.836 128.475 364.164 118.209C361.464 110.652 356.721 104.229 351.148 98.4195C353.359 97.6668 355.652 97.165 358.028 96.9819C370.322 96.0371 382.036 104.247 388.066 115.051C394.096 125.855 395.219 138.762 394.341 151.101Z" fill="#BD6F3A"/>
<path d="M215.488 139.998C207.367 103.503 213.091 64.0647 231.308 31.4458C237.254 20.8403 245.264 10.3095 256.836 6.6997C269.67 2.69665 284.077 8.5396 293.07 18.5574C302.061 28.5436 306.384 41.9654 308.395 55.281C312.866 84.4823 307.227 115.137 292.688 140.817C284.469 155.308 272.931 168.662 257.525 174.908C257.493 174.939 257.433 174.97 257.401 174.969C246.596 179.326 234.174 176.001 226.902 166.86C226.351 166.175 225.831 165.493 225.314 164.747C220.246 157.414 217.467 148.703 215.488 139.998Z" fill="#CC6F43"/>
<path d="M107.328 140.841C92.7663 115.166 87.1348 84.5048 91.595 55.3285C93.6171 42.006 97.9186 28.5752 106.911 18.5777C115.903 8.57798 130.321 2.72821 143.138 6.7064C154.695 10.3342 162.729 20.8425 168.669 31.4593C186.884 64.0556 192.647 103.505 184.508 139.992C182.575 148.735 179.781 157.441 174.686 164.772C174.188 165.481 173.66 166.189 173.102 166.896C165.839 176.009 153.439 179.335 142.626 174.999C142.595 174.968 142.533 174.967 142.472 174.936C127.113 168.684 115.554 155.341 107.328 140.841Z" fill="#CC6F43"/>
<path d="M322.372 351.279C318.086 372.259 301.769 391.741 280.626 394.331C252.766 397.778 230.163 372.58 200.045 372.578C169.927 372.607 147.321 397.805 119.472 394.351C98.3313 391.745 82.0075 372.277 77.701 351.306C73.4259 330.366 79.105 308.529 87.817 289.002C103.43 253.985 137.976 214.879 171.288 196.245C189.119 186.302 210.893 186.281 228.723 196.231C262.054 214.845 296.612 253.946 312.256 288.972C320.944 308.486 326.629 330.332 322.372 351.279Z" fill="#CC6F43"/>
<path d="M75.7508 247.936C75.72 247.934 75.6583 247.904 75.5971 247.902C60.5526 245.459 47.4927 235.879 37.1847 224.555C18.923 204.549 7.62862 178.244 5.67014 151.162C4.79167 138.814 5.91816 125.887 11.9283 115.098C17.9693 104.308 29.6911 96.089 41.9727 97.0316C53.0846 97.9041 62.3988 105.666 69.8924 113.973C92.863 139.454 106.019 173.596 106.145 207.968C106.187 216.197 105.458 224.577 102.394 232.168C102.081 232.939 101.769 233.68 101.425 234.39C96.7461 244.075 86.3036 249.609 75.7508 247.936Z" fill="#CC6F43"/>
<path d="M102.394 232.168C102.081 232.939 101.768 233.678 101.424 234.388C96.7461 244.073 86.3038 249.609 75.7512 247.934C75.7197 247.934 75.659 247.902 75.596 247.902C60.5524 245.456 47.4933 235.879 37.1838 224.554C31.1538 217.945 25.882 210.65 21.4563 202.868C28.8498 208.894 37.8723 212.481 45.5133 213.634C58.6061 215.607 72.5697 209.85 80.5077 199.204C89.7148 186.86 90.3763 170.097 88.403 154.799C87.4198 147.184 85.8718 139.646 83.786 132.261C98.0916 154.727 106.048 181.28 106.144 207.967C106.187 216.197 105.458 224.576 102.394 232.168Z" fill="#BD6F3A"/>
<path d="M292.688 140.817C284.469 155.305 272.931 168.662 257.525 174.908C257.493 174.939 257.433 174.969 257.401 174.969C246.597 179.327 234.174 176 226.902 166.86C226.351 166.175 225.831 165.49 225.314 164.744C220.816 158.237 218.121 150.644 216.188 142.93C221.759 149.853 231.359 152.514 240.222 151.874C254.384 150.85 267.38 142.408 275.973 131.054C284.568 119.698 289.113 105.68 291.171 91.5661C295.417 62.4508 289.27 31.943 274.254 6.69509C281.4 8.70905 288.071 12.9879 293.07 18.5573C302.062 28.5435 306.384 41.9654 308.395 55.281C312.866 84.4823 307.228 115.137 292.688 140.817Z" fill="#BD6F3A"/>
<path d="M184.508 139.989C182.575 148.732 179.78 157.439 174.686 164.772C174.187 165.479 173.66 166.189 173.102 166.896C165.839 176.009 153.44 179.336 142.626 174.998C142.595 174.967 142.534 174.967 142.473 174.937C127.112 168.684 115.554 155.339 107.328 140.841C105.49 137.6 103.793 134.28 102.245 130.891C112.811 137.745 125.85 140.821 138.306 138.922C147.005 137.596 155.703 133.71 160.869 126.558C164.813 121.1 166.359 114.289 167.439 107.635C171.64 81.7518 171.305 50.9366 164.521 24.6716C166.01 26.8822 167.39 29.1674 168.67 31.4571C186.884 64.0556 192.646 103.505 184.508 139.989Z" fill="#BD6F3A"/>
<path d="M37.6964 141.031C36.1491 154.989 36.5705 166.492 29.0892 165.655C21.608 164.817 16.7974 152.823 18.3447 138.866C19.892 124.908 27.2111 114.273 34.6924 115.11C42.1737 115.946 39.2437 127.074 37.6964 141.031Z" fill="#F5A089"/>
<path d="M123.23 282.711C119.983 286.737 116.926 291.603 113.211 288.468C109.692 285.501 109.028 280.205 113.047 273.602C115.721 269.208 121.021 268.968 123.83 271.337C126.251 273.381 126.196 279.034 123.23 282.711Z" fill="#F5A089"/>
<path d="M165.381 239.812C147.308 255.296 133.752 269.136 128.867 263.381C123.983 257.628 134.674 240.411 152.747 224.929C170.819 209.446 189.43 201.559 194.314 207.313C199.199 213.067 183.454 224.33 165.381 239.812Z" fill="#F5A089"/>
<path d="M327.925 134.465C335.724 122.255 342.893 114.933 349.229 119.018C355.565 123.1 352.113 132.819 344.312 145.03C336.514 157.24 327.615 165.967 321.281 161.883C314.945 157.798 320.127 146.675 327.925 134.465Z" fill="#F5A089"/>
<path d="M124.271 54.8855C119.646 71.1305 117.59 84.7874 110.03 82.6152C102.47 80.443 100.091 65.5113 104.717 49.2663C109.342 33.0212 119.22 21.6134 126.78 23.7855C134.34 25.9577 128.896 38.6404 124.271 54.8855Z" fill="#F5A089"/>
<path d="M256.852 55.2832C251.742 71.3813 241.44 84.6314 233.949 82.2332C226.457 79.8327 232.365 65.1745 237.475 49.0764C242.583 32.9783 250.548 19.5044 258.038 21.9026C265.53 24.3031 261.962 39.1851 256.852 55.2832Z" fill="#F5A089"/>
<path d="M322.37 351.279C318.086 372.259 301.769 391.741 280.626 394.331C252.766 397.778 230.162 372.58 200.044 372.578C169.925 372.607 147.32 397.805 119.471 394.351C98.3323 391.745 82.0062 372.277 77.702 351.306C75.5307 340.671 75.9267 329.805 77.9832 319.128C77.9157 325.746 80.2895 332.586 84.4655 337.502C91.5935 345.897 102.675 349.267 113.194 348.978C123.715 348.691 133.905 345.178 143.92 341.677C153.935 338.173 164.107 334.618 174.623 334.233C187.212 333.775 199.502 337.877 211.861 340.522C224.218 343.166 237.614 344.224 248.887 338.13C263.451 330.255 271.023 312.193 273.446 294.743C277.363 266.566 269.985 236.955 254.278 214.19C278.54 234.639 300.624 262.931 312.254 288.972C320.944 308.486 326.629 330.332 322.37 351.279Z" fill="#BD6F3A"/>
<path d="M244.754 171.27C245.728 171.324 245.202 171.313 244.754 171.27Z" fill="#040606"/>
<path d="M217.619 96.6157C217.733 94.873 217.877 93.1325 218.049 91.3943C218.139 90.4925 218.236 89.5928 218.341 88.6932C218.386 88.309 218.432 87.9224 218.48 87.5382C218.512 87.2805 218.546 87.0251 218.578 86.7674C218.657 86.1345 218.583 86.5843 218.549 86.9257C218.674 85.1829 219.072 83.4041 219.368 81.6862C219.674 79.9005 220.013 78.1216 220.381 76.3473C221.842 69.3222 223.785 62.3942 226.2 55.6381C226.808 53.9338 227.449 52.2408 228.117 50.5591C228.425 49.7861 228.808 49.0176 229.067 48.2265C228.63 49.5533 229.067 48.2378 229.204 47.9145C229.409 47.4399 229.616 46.9675 229.825 46.4951C231.265 43.2447 232.82 40.0463 234.487 36.9067C236.069 33.9276 237.752 30.9982 239.604 28.1795C240.495 26.8211 241.433 25.4965 242.405 24.1969C242.448 24.1426 242.502 24.0748 242.574 23.9844C242.792 23.7086 243.015 23.4351 243.237 23.1639C243.793 22.4903 244.365 21.8258 244.952 21.1793C246.039 19.9813 247.179 18.8308 248.383 17.7504C248.835 17.3458 249.303 16.9593 249.769 16.5682C249.927 16.4597 250.179 16.2337 250.206 16.2156C250.525 15.9783 250.849 15.7477 251.175 15.5217C252.483 14.6198 253.848 13.8084 255.27 13.1054C255.601 12.9427 255.936 12.7912 256.269 12.6352C256.326 12.6149 256.395 12.5878 256.481 12.5539C257.232 12.2646 257.993 12.0069 258.765 11.7831C259.478 11.5752 260.198 11.3966 260.925 11.2451C261.312 11.166 261.703 11.0937 262.095 11.0304C262.261 11.0033 262.432 10.9852 262.599 10.9535C262.506 10.9716 262.425 10.9874 262.351 11.001C263.919 10.8428 265.497 10.8112 267.069 10.9016C267.717 10.9378 268.361 11.0281 269.004 11.0801C269.117 11.0982 269.229 11.114 269.34 11.1344C269.731 11.2022 270.12 11.2768 270.51 11.3582C272.073 11.6859 273.615 12.1244 275.12 12.6579C275.5 12.7935 275.876 12.9336 276.249 13.0805C276.355 13.1212 276.51 13.1981 276.654 13.2704C276.58 13.2297 276.495 13.1845 276.396 13.128C277.098 13.5168 277.867 13.8016 278.583 14.17C280.025 14.9092 281.422 15.7409 282.768 16.6473C283.346 17.0406 283.908 17.4543 284.471 17.8679C284.561 17.9403 284.653 18.0126 284.743 18.0872C285.101 18.381 285.454 18.6794 285.803 18.9868C287.018 20.0537 288.17 21.1906 289.252 22.3931C289.792 22.9921 290.316 23.6069 290.825 24.233C291.079 24.5449 291.68 25.6186 291.012 24.45C291.221 24.8162 291.536 25.1507 291.781 25.4943C292.791 26.9002 293.727 28.3581 294.594 29.8545C295.462 31.3553 296.263 32.8946 296.997 34.4655C297.339 35.1979 297.638 35.9506 297.982 36.6784C297.359 35.3606 297.946 36.6151 298.075 36.9384C298.259 37.404 298.437 37.8696 298.61 38.3375C299.809 41.5675 300.779 44.8812 301.567 48.2378C301.969 49.9466 302.323 51.6667 302.638 53.3958C302.95 55.1205 303.083 56.9152 303.463 58.624C303.477 58.7393 303.493 58.8546 303.506 58.9721C303.562 59.4264 303.616 59.8785 303.668 60.3351C303.769 61.2437 303.864 62.1524 303.947 63.0633C304.114 64.8851 304.242 66.7115 304.332 68.5378C304.507 72.1272 304.539 75.7234 304.424 79.3151C304.307 82.9723 304.039 86.6228 303.625 90.2596C303.574 90.714 303.52 91.1683 303.463 91.6204C303.454 91.6972 303.445 91.7718 303.434 91.8487C303.268 92.7731 303.173 93.7157 303.025 94.6424C302.739 96.4507 302.417 98.2522 302.057 100.045C300.633 107.156 298.637 114.151 296.088 120.937C295.791 121.733 295.482 122.524 295.17 123.313C295.001 123.737 294.83 124.162 294.657 124.585C294.594 124.739 294.529 124.895 294.463 125.051C294.459 125.064 294.452 125.078 294.445 125.096C293.721 126.773 292.974 128.441 292.186 130.091C290.663 133.283 289.011 136.413 287.227 139.463C285.546 142.335 283.744 145.138 281.805 147.844C281.355 148.475 280.896 149.098 280.432 149.715C280.36 149.81 280.288 149.903 280.216 149.996C279.948 150.333 279.683 150.674 279.411 151.011C278.405 152.258 277.368 153.479 276.294 154.666C274.08 157.116 271.718 159.43 269.2 161.56C268.622 162.05 268.012 162.507 267.432 162.997C267.378 163.038 267.324 163.079 267.27 163.119C266.896 163.4 266.518 163.675 266.138 163.947C264.806 164.896 263.438 165.791 262.032 166.625C260.623 167.461 259.179 168.237 257.703 168.942C257.385 169.093 257.066 169.242 256.744 169.389C256.647 169.432 256.377 169.552 256.159 169.647C256.132 169.658 256.107 169.67 256.089 169.676C255.689 169.844 253.54 170.499 255.651 169.862C255.275 169.975 254.913 170.14 254.541 170.264C253.16 170.73 251.756 171.053 250.325 171.302C250.215 171.313 250.107 171.324 249.996 171.336C249.616 171.369 249.236 171.394 248.856 171.412C248.097 171.449 247.337 171.451 246.579 171.421C245.874 171.394 245.179 171.293 244.477 171.254C244.581 171.259 244.673 171.265 244.754 171.27C244.65 171.259 244.549 171.247 244.473 171.234C244.047 171.159 243.624 171.073 243.204 170.976C242.522 170.822 241.845 170.639 241.174 170.431C240.814 170.318 240.456 170.196 240.101 170.07C239.982 170.025 239.563 169.86 239.311 169.76C239.181 169.701 239.052 169.645 238.998 169.62C238.656 169.457 238.317 169.285 237.981 169.109C237.309 168.754 236.649 168.368 236.01 167.956C235.688 167.748 235.373 167.534 235.061 167.314C234.984 167.26 234.908 167.204 234.831 167.149C234.311 166.668 233.733 166.241 233.218 165.753C232.651 165.212 232.109 164.649 231.591 164.062C231.366 163.809 231.148 163.551 230.934 163.289C230.783 163.103 230.635 162.916 230.486 162.73C230.041 162.177 230.414 162.764 230.646 162.938C230.032 162.477 229.508 161.329 229.094 160.68C228.592 159.898 228.115 159.1 227.658 158.291C226.747 156.668 225.946 154.993 225.183 153.296C225.163 153.253 225.147 153.217 225.131 153.183C225.122 153.162 225.116 153.144 225.107 153.12C224.933 152.688 224.759 152.254 224.592 151.82C224.234 150.884 223.895 149.941 223.575 148.992C222.419 145.57 221.5 142.076 220.695 138.556C219.913 135.019 219.251 131.459 218.723 127.874C218.67 127.512 218.619 127.148 218.567 126.784C218.552 126.667 218.535 126.552 218.52 126.434C218.397 125.471 218.283 124.508 218.178 123.545C217.99 121.809 217.832 120.071 217.703 118.328C217.168 111.104 217.143 103.844 217.619 96.6157ZM303.434 58.3889C303.441 58.459 303.45 58.5268 303.459 58.5969C303.416 58.3256 303.322 57.4893 303.434 58.3889ZM218.581 126.902C218.588 126.952 218.593 126.99 218.594 127.01C218.591 126.974 218.586 126.938 218.581 126.902ZM218.524 126.481C218.5 126.316 218.489 126.237 218.524 126.481ZM210.281 141.44C213.59 155.909 219.716 172.873 234.284 179.325C241.125 182.354 248.709 183.161 255.972 181.168C256.726 180.961 257.473 180.719 258.204 180.445C258.416 180.366 258.627 180.285 258.837 180.2C258.884 180.181 260.956 179.306 259.748 179.812C260.295 179.58 260.844 179.35 261.39 179.114C262.95 178.438 264.475 177.686 265.962 176.865C269.238 175.056 272.271 172.891 275.205 170.569C286.386 161.713 294.776 149.365 301 136.626C307.99 122.32 312.394 107.038 314.311 91.2316C316.156 76.0286 315.492 60.2763 311.982 45.3513C308.499 30.5507 301.254 16.2472 288.505 7.47489C282.412 3.28423 275.268 0.723295 267.915 0.110745C260.63 -0.497285 253.191 1.43755 247.004 5.31176C240.688 9.26509 235.695 14.8662 231.465 20.9465C227.37 26.8324 224.015 33.2563 221.055 39.7796C214.709 53.7643 210.298 68.5582 208.177 83.786C206.006 99.3756 206.005 114.99 208.281 130.566C208.814 134.214 209.485 137.84 210.281 141.44Z" fill="#040606"/>
<path d="M262.351 11.0011C262.347 11.0033 262.344 11.0034 262.34 11.0034C261.989 11.0395 261.224 11.2226 262.351 11.0011Z" fill="#040606"/>
<path d="M276.654 13.2704C277.264 13.6071 276.992 13.4444 276.654 13.2704Z" fill="#040606"/>
<path d="M95.7738 66.6189C95.8868 64.8603 96.0353 63.1018 96.2193 61.35C96.3147 60.4414 96.4198 59.5327 96.5346 58.6263C96.5496 58.5065 96.5674 58.3867 96.5836 58.2669C96.6464 57.8329 96.7071 57.3967 96.7726 56.9627C97.8105 50.089 99.4146 43.2696 101.983 36.8005C102.011 36.7305 102.135 36.4276 102.236 36.1767C102.261 36.1157 102.286 36.0569 102.3 36.0275C102.401 35.7992 102.5 35.5709 102.602 35.3449C102.958 34.5515 103.33 33.7672 103.719 32.9896C104.494 31.439 105.336 29.9223 106.247 28.4509C106.703 27.714 107.176 26.9907 107.666 26.2787C107.877 25.9713 108.091 25.6684 108.308 25.3678C108.415 25.2209 108.523 25.074 108.631 24.927C109.807 23.781 110.752 22.3344 111.911 21.1545C113.048 19.995 114.256 18.9236 115.509 17.8928C115.515 17.8883 115.519 17.8861 115.525 17.8815C115.85 17.6442 116.172 17.4023 116.5 17.1718C117.163 16.7039 117.84 16.2541 118.53 15.8269C119.906 14.9702 121.333 14.1972 122.801 13.5146C122.931 13.4536 123.061 13.3948 123.191 13.336C123.48 13.223 123.766 13.0964 124.056 12.9857C124.805 12.7009 125.564 12.4387 126.331 12.2014C127.854 11.7312 129.407 11.3605 130.979 11.1028C131.049 11.0915 131.106 11.0825 131.156 11.0734C131.46 11.0418 131.764 11.0079 132.068 10.983C132.911 10.9107 133.756 10.8745 134.602 10.8723C135.334 10.87 136.067 10.8926 136.797 10.9446C137.156 10.9717 137.514 11.0147 137.873 11.044C137.932 11.0531 137.992 11.0599 138.051 11.0712C139.626 11.3334 141.178 11.7312 142.684 12.2646C142.926 12.3505 143.165 12.4432 143.404 12.5359C143.57 12.6218 143.882 12.728 143.93 12.7483C144.651 13.0806 145.359 13.4423 146.053 13.8288C147.419 14.5883 148.715 15.4585 149.973 16.3852C150.021 16.4259 150.08 16.4756 150.155 16.5344C150.42 16.7536 150.683 16.9729 150.943 17.1967C151.595 17.7595 152.231 18.3427 152.85 18.9417C154.015 20.0741 155.122 21.2653 156.175 22.5039C156.668 23.0826 157.149 23.6725 157.62 24.2692C157.642 24.2986 157.662 24.3235 157.681 24.3461C157.698 24.371 157.717 24.3981 157.741 24.4298C157.985 24.7598 158.231 25.0898 158.472 25.4243C159.436 26.7602 160.354 28.1299 161.234 29.5245C163.063 32.42 164.727 35.4195 166.3 38.4642C167.93 41.6196 169.447 44.836 170.85 48.1C170.883 48.1768 170.918 48.2537 170.952 48.3305C170.962 48.3531 170.972 48.378 170.985 48.4096C171.157 48.8278 171.331 49.246 171.501 49.6641C171.841 50.5027 172.173 51.3435 172.498 52.1889C173.149 53.8774 173.769 55.5771 174.359 57.286C176.701 64.0692 178.568 71.0175 179.954 78.0584C180.304 79.8351 180.622 81.6184 180.911 83.4064C181.055 84.3015 181.191 85.1965 181.319 86.0916C181.345 86.2725 181.476 87.2535 181.436 86.928C181.438 86.9393 181.439 86.9483 181.44 86.9573C181.473 87.215 181.505 87.4705 181.537 87.7281C181.981 91.3221 182.3 94.9341 182.494 98.5506C182.879 105.718 182.771 112.913 182.159 120.064C182.005 121.868 181.819 123.67 181.6 125.467C181.562 125.783 181.522 126.097 181.482 126.411C181.487 126.378 181.492 126.348 181.495 126.332C181.488 126.366 181.485 126.4 181.479 126.434C181.471 126.497 181.463 126.558 181.456 126.622C181.351 127.444 181.428 126.796 181.473 126.475C181.451 126.619 181.435 126.766 181.414 126.909C181.279 127.869 181.134 128.83 180.98 129.786C180.414 133.308 179.721 136.811 178.905 140.283C178.059 143.882 177.055 147.444 175.782 150.913C175.623 151.345 175.46 151.777 175.293 152.206C175.195 152.457 174.839 153.018 174.854 153.287C174.803 153.404 174.753 153.52 174.701 153.637C174.488 154.116 174.269 154.591 174.043 155.066C173.281 156.659 172.445 158.219 171.525 159.729C171.047 160.511 170.548 161.282 170.023 162.034C169.772 162.394 169.513 162.744 169.254 163.097C169.167 163.214 169.103 163.302 169.056 163.368C168.965 163.467 168.877 163.56 168.855 163.585C167.854 164.778 166.746 165.884 165.552 166.883C165.469 166.951 165.379 167.018 165.291 167.088C165.044 167.265 164.799 167.446 164.548 167.617C163.918 168.045 163.27 168.445 162.606 168.818C161.992 169.161 161.364 169.48 160.725 169.774C160.695 169.787 160.669 169.799 160.643 169.812C160.25 169.959 159.859 170.111 159.461 170.246C158.06 170.721 156.63 171.058 155.176 171.311C154.816 171.342 154.457 171.381 154.097 171.403C153.34 171.453 152.582 171.469 151.824 171.453C151.082 171.437 150.342 171.388 149.604 171.311C149.197 171.229 148.786 171.168 148.38 171.082C146.873 170.761 145.419 170.294 143.984 169.738C143.958 169.726 143.935 169.717 143.912 169.708C143.908 169.706 143.904 169.706 143.9 169.704C143.579 169.559 143.257 169.417 142.938 169.27C142.142 168.901 141.356 168.512 140.579 168.103C139.133 167.346 137.721 166.521 136.346 165.64C135.019 164.79 133.736 163.877 132.471 162.934C132.458 162.925 132.447 162.916 132.435 162.907C132.401 162.88 132.363 162.85 132.318 162.814C131.998 162.559 131.679 162.301 131.364 162.039C130.732 161.514 130.109 160.979 129.496 160.434C127.028 158.237 124.718 155.861 122.554 153.361C122.049 152.778 121.552 152.188 121.063 151.592C120.799 151.271 120.537 150.947 120.278 150.622C120.167 150.482 120.056 150.342 119.946 150.201C119.927 150.179 119.912 150.159 119.895 150.138C118.957 148.848 117.992 147.58 117.086 146.264C115.268 143.622 113.579 140.893 111.991 138.104C110.192 134.922 108.52 131.667 106.992 128.344C106.638 127.573 106.29 126.798 105.951 126.02C105.769 125.602 105.565 125.189 105.409 124.761C105.415 124.777 105.806 125.722 105.574 125.152C105.45 124.852 105.324 124.549 105.201 124.248C104.537 122.614 103.905 120.969 103.307 119.31C100.823 112.429 98.9049 105.343 97.5711 98.1483C97.2496 96.4146 96.9618 94.6741 96.7082 92.9269C96.6709 92.6692 96.6354 92.4115 96.5982 92.1539C96.5922 92.1064 96.5865 92.0657 96.5834 92.0386C96.5514 91.7787 96.5181 91.521 96.4866 91.261C96.3764 90.3524 96.2751 89.4437 96.1831 88.5351C95.8152 84.8959 95.5963 81.241 95.5272 77.5838C95.4584 73.9265 95.5398 70.267 95.7738 66.6189ZM108.635 24.9225C108.672 24.8705 108.71 24.8208 108.747 24.7688C109.123 24.2557 108.856 24.6806 108.635 24.9225ZM171.134 48.7622C171.101 48.6831 171.036 48.5272 170.985 48.4051C171.038 48.5226 171.088 48.6424 171.134 48.7622ZM174.939 153.097C174.911 153.158 174.883 153.221 174.856 153.285C174.886 153.117 175.341 152.184 174.939 153.097ZM169.126 163.289C169.208 163.178 169.286 163.07 169.283 163.061C169.292 163.09 169.216 163.187 169.126 163.289ZM119.887 150.127C119.659 149.822 119.558 149.706 119.887 150.127ZM119.934 150.19C119.963 150.229 119.992 150.269 120.024 150.312C119.994 150.272 119.963 150.231 119.934 150.19ZM97.5851 133.642C99.1356 137.026 100.834 140.34 102.666 143.581C109.758 156.038 119.12 167.606 131.338 175.29C137.477 179.151 144.334 182.097 151.661 182.299C158.605 182.491 165.793 180.254 171.326 176.022C178.048 170.879 182.282 163.585 185.416 155.823C188.257 148.789 189.945 141.284 191.205 133.819C193.764 118.654 194.228 103.193 192.361 87.9203C190.446 72.2539 186.405 57.1187 180.176 42.6232C174.459 29.3234 167.051 15.6122 155.215 6.86017C149.319 2.49999 142.102 0.043003 134.771 0.02266C127.437 5.66212e-05 120.113 2.28072 113.822 6.00575C100.556 13.8627 92.6812 27.8881 88.7495 42.4717C86.7322 49.9534 85.6195 57.7222 85.0543 65.4458C84.5015 73.0021 84.6052 80.6058 85.3444 88.144C86.8921 103.93 90.9829 119.23 97.5851 133.642Z" fill="#040606"/>
<path d="M181.479 126.434C181.48 126.427 181.481 126.418 181.482 126.411C181.479 126.43 181.476 126.452 181.473 126.475C181.475 126.461 181.477 126.448 181.479 126.434Z" fill="#040606"/>
<path d="M388.363 157.05C388.347 157.168 388.334 157.285 388.318 157.403C388.205 158.16 388.104 158.922 387.985 159.679C387.49 162.814 386.871 165.931 386.133 169.019C384.644 175.256 382.664 181.375 380.227 187.303C380.211 187.341 380.195 187.379 380.18 187.417C380.015 187.735 379.894 188.086 379.752 188.414C379.403 189.213 379.048 190.008 378.683 190.799C378.031 192.212 377.354 193.612 376.649 194.999C375.185 197.883 373.607 200.71 371.922 203.47C370.268 206.176 368.509 208.818 366.65 211.386C366.178 212.041 365.696 212.69 365.21 213.335C365.111 213.466 364.997 213.597 364.902 213.735C364.718 213.973 364.531 214.213 364.344 214.45C363.338 215.717 362.31 216.963 361.255 218.188C357.137 222.972 352.633 227.324 347.741 231.302C347.705 231.332 347.671 231.359 347.635 231.386C347.343 231.607 347.05 231.827 346.758 232.044C346.072 232.55 345.379 233.045 344.677 233.526C343.428 234.385 342.152 235.206 340.849 235.981C339.502 236.786 338.125 237.541 336.721 238.241C336.075 238.562 335.425 238.874 334.768 239.173C334.689 239.209 334.306 239.376 334.059 239.485C333.823 239.582 333.503 239.711 333.404 239.751C330.551 240.875 327.604 241.756 324.598 242.351C323.986 242.471 323.322 242.516 322.712 242.672C322.692 242.674 322.672 242.676 322.651 242.679C322.269 242.712 321.886 242.737 321.502 242.751C320.847 242.778 320.194 242.778 319.54 242.751C319.162 242.735 318.784 242.71 318.406 242.676C318.309 242.667 318.212 242.656 318.115 242.647C316.84 242.416 315.584 242.138 314.349 241.727C314.045 241.625 313.744 241.519 313.444 241.406C313.415 241.395 313.366 241.374 313.307 241.352C313.154 241.282 312.792 241.121 312.684 241.069C312.349 240.906 312.018 240.737 311.692 240.561C311.084 240.228 310.49 239.873 309.912 239.491C309.646 239.315 309.383 239.134 309.122 238.949C309.066 238.908 309.021 238.877 308.98 238.847C307.936 237.975 306.951 237.046 306.053 236.022C305.86 235.8 305.673 235.574 305.486 235.348C305.484 235.344 305.482 235.339 305.477 235.335C305.038 234.702 304.606 234.069 304.217 233.404C303.877 232.828 303.562 232.24 303.272 231.639C303.207 231.503 302.712 230.649 302.775 230.545C302.775 230.545 303.155 231.497 302.921 230.893C302.824 230.638 302.719 230.385 302.62 230.129C301.342 226.818 300.496 223.352 299.956 219.847C299.924 219.645 299.737 218.377 299.85 219.143C299.964 219.907 299.796 218.637 299.773 218.433C299.67 217.476 299.584 216.517 299.515 215.557C299.393 213.84 299.323 212.12 299.294 210.4C299.236 207.079 299.314 203.756 299.508 200.441C299.692 197.263 299.989 194.092 300.392 190.935C300.399 190.885 300.406 190.835 300.412 190.785C300.471 190.388 300.525 189.991 300.583 189.595C300.703 188.792 300.829 187.991 300.961 187.19C301.227 185.589 301.519 183.993 301.839 182.402C303.108 176.097 304.804 169.878 306.906 163.802C307.437 162.267 307.993 160.741 308.575 159.227C308.845 158.526 309.118 157.83 309.399 157.134C309.538 156.786 309.678 156.44 309.822 156.094C309.865 155.986 309.91 155.879 309.955 155.771C311.235 152.812 312.576 149.883 314.034 147.005C316.941 141.271 320.233 135.735 323.887 130.451C324.773 129.167 325.682 127.899 326.611 126.647C326.87 126.296 327.133 125.948 327.397 125.6C327.428 125.555 327.462 125.512 327.496 125.469C328.018 124.881 328.474 124.212 328.967 123.6C330.981 121.088 333.078 118.638 335.278 116.292C337.402 114.029 339.634 111.862 342.019 109.877C342.301 109.644 342.584 109.416 342.868 109.185C342.901 109.156 342.928 109.133 342.953 109.113C342.989 109.088 343.025 109.061 343.068 109.027C343.693 108.557 344.332 108.098 344.98 107.655C346.265 106.78 347.593 105.969 348.965 105.243C349.593 104.909 350.23 104.595 350.878 104.301C350.9 104.29 350.925 104.278 350.95 104.267C351.314 104.174 351.685 103.971 352.041 103.844C353.479 103.322 354.957 102.909 356.46 102.619C356.678 102.578 356.897 102.542 357.117 102.506C357.335 102.484 357.702 102.436 357.671 102.438C358.406 102.373 359.144 102.337 359.885 102.334C360.555 102.332 361.226 102.357 361.894 102.409C362.168 102.429 362.443 102.459 362.717 102.486C362.848 102.506 362.976 102.527 363.107 102.549C364.475 102.793 365.822 103.141 367.141 103.584C367.51 103.709 367.879 103.84 368.243 103.978C368.311 104.005 368.489 104.075 368.653 104.14C368.828 104.219 369.04 104.314 369.116 104.351C369.472 104.516 369.825 104.69 370.174 104.87C371.479 105.542 372.739 106.304 373.947 107.14C374.226 107.334 374.505 107.531 374.78 107.734C374.798 107.748 374.818 107.764 374.838 107.777C375.38 108.308 376.033 108.758 376.595 109.269C377.655 110.23 378.661 111.254 379.606 112.327C380.054 112.838 380.459 113.392 380.906 113.903C380.942 113.95 380.976 113.998 381.012 114.045C381.246 114.371 381.476 114.698 381.701 115.028C382.562 116.301 383.343 117.628 384.05 118.993C384.407 119.682 384.747 120.383 385.069 121.091C385.107 121.179 385.244 121.493 385.341 121.708C385.348 121.728 385.355 121.746 385.359 121.757C385.476 122.06 385.595 122.359 385.71 122.662C386.873 125.754 387.717 128.959 388.3 132.209C388.43 132.935 388.439 133.794 388.664 134.494C388.678 134.605 388.691 134.718 388.705 134.829C388.757 135.283 388.804 135.738 388.849 136.192C389.011 137.887 389.114 139.589 389.166 141.291C389.265 144.562 389.168 147.837 388.941 151.101C388.824 152.717 388.676 154.329 388.493 155.938C388.451 156.309 388.408 156.68 388.363 157.05ZM388.635 134.246C388.644 134.325 388.653 134.404 388.662 134.485C388.615 134.25 388.523 133.31 388.635 134.246ZM390.831 109.269C386.945 103.645 381.854 98.7517 375.774 95.5805C369.274 92.1877 362.24 90.8881 354.991 91.9255C341.34 93.8807 330.52 104.69 322.154 114.909C313.435 125.562 306.172 137.336 300.748 150.014C295.134 163.135 291.401 176.768 289.592 190.935C288.735 197.655 288.343 204.451 288.512 211.225C288.703 218.925 289.666 226.797 292.584 233.969C294.051 237.575 295.845 240.755 298.417 243.693C300.532 246.112 303.164 248.207 305.961 249.774C312.043 253.178 318.964 254.254 325.799 253.117C339.405 250.854 351.537 243.103 361.426 233.725C371.283 224.377 379.514 213.063 385.719 200.974C391.981 188.776 396.409 175.582 398.486 162.009C399.037 158.391 399.473 154.752 399.741 151.101C400.727 136.897 399.127 121.274 390.831 109.269Z" fill="#040606"/>
<path d="M314.25 359.637C314.182 359.805 314 360.537 313.852 360.623C313.942 360.41 314.029 360.196 314.119 359.981C314.027 360.198 313.933 360.415 313.838 360.632C313.264 361.929 312.646 363.209 311.982 364.463C310.715 366.864 309.289 369.18 307.707 371.384C307.502 371.671 307.295 371.956 307.084 372.241C306.991 372.365 306.242 373.138 306.865 372.532C307.5 371.92 306.726 372.702 306.636 372.813C306.415 373.086 306.195 373.36 305.968 373.629C305.072 374.705 304.134 375.749 303.16 376.752C302.271 377.668 301.348 378.552 300.397 379.402C299.879 379.863 299.352 380.313 298.815 380.751C298.79 380.771 298.619 380.907 298.439 381.047C298.52 380.995 298.477 381.038 298.106 381.314C298.045 381.364 298.005 381.397 298.007 381.402C298.005 381.397 298.009 381.391 298.016 381.379C298.011 381.384 298.009 381.386 298.002 381.391C295.89 382.957 293.651 384.352 291.302 385.536C290.692 385.844 290.071 386.126 289.45 386.415C289.439 386.422 289.428 386.427 289.416 386.431C289.122 386.549 288.827 386.669 288.53 386.779C287.247 387.268 285.942 387.69 284.619 388.045C283.398 388.371 282.16 388.642 280.911 388.85C280.707 388.886 280.504 388.915 280.299 388.947C280.293 388.947 280.286 388.947 280.279 388.949C279.474 389.026 278.673 389.11 277.867 389.157C275.282 389.309 272.683 389.223 270.109 388.929C270.143 388.938 270.179 388.947 270.215 388.954C270.159 388.942 270.1 388.931 270.042 388.92C270.017 388.918 269.992 388.913 269.965 388.909C269.774 388.879 269.578 388.861 269.389 388.832C268.784 388.737 268.179 388.631 267.578 388.515C266.262 388.264 264.952 387.964 263.656 387.625C261.143 386.969 258.668 386.164 256.229 385.272C255.045 384.838 253.871 384.383 252.703 383.911C252.06 383.653 251.423 383.387 250.782 383.122C250.777 383.12 250.775 383.118 250.77 383.118C250.406 382.959 250.039 382.801 249.672 382.643C239.333 378.145 229.231 372.887 218.338 369.825C212.589 368.208 206.583 367.218 200.607 367.157C194.616 367.094 188.569 368.01 182.787 369.553C171.845 372.474 161.7 377.7 151.376 382.247C150.79 382.505 150.204 382.76 149.616 383.014C149.616 383.014 149.616 383.014 149.615 383.014C149.327 383.05 148.934 383.301 148.667 383.411C147.394 383.94 146.114 384.451 144.824 384.937C142.388 385.857 139.919 386.691 137.41 387.387C135.184 388.002 132.917 388.323 130.673 388.802C130.833 388.775 130.28 388.915 130 388.951C129.959 388.961 129.918 388.967 129.877 388.979C129.916 388.97 129.952 388.961 129.987 388.951C129.987 388.951 129.986 388.951 129.986 388.951C129.653 388.99 129.32 389.024 128.986 389.056C128.43 389.107 127.872 389.148 127.313 389.18C125.962 389.257 124.607 389.272 123.254 389.225C122.568 389.202 121.883 389.162 121.199 389.105C120.758 389.069 119.952 388.841 119.509 388.922C119.173 388.868 118.838 388.811 118.503 388.748C117.825 388.622 117.149 388.477 116.478 388.316C115.199 388.009 113.936 387.636 112.693 387.204C112.105 387.001 111.521 386.782 110.943 386.551C110.762 386.348 110.116 386.189 109.87 386.074C107.442 384.93 105.12 383.563 102.929 382.01C102.847 381.951 101.794 381.144 101.581 381.011C101.57 381.002 101.559 380.993 101.548 380.984C101.279 380.767 101.012 380.545 100.748 380.322C99.6851 379.426 98.6593 378.488 97.6713 377.51C96.7603 376.608 95.8816 375.674 95.0361 374.711C94.573 374.182 94.1197 373.647 93.6766 373.102C93.5286 372.921 93.3832 372.736 93.2361 372.553C93.1938 372.501 93.1585 372.456 93.1279 372.417C93.0878 372.363 93.0471 372.309 93.007 372.257C91.3872 370.082 89.9184 367.795 88.6085 365.419C87.9805 364.28 87.3892 363.12 86.835 361.945C86.6973 361.651 85.8466 360.275 85.9625 360.003C86.052 360.218 86.1416 360.431 86.2311 360.645C86.1404 360.426 86.0513 360.209 85.9631 359.99C85.8313 359.66 85.7021 359.33 85.5759 359C84.5697 356.36 83.7485 353.65 83.1295 350.894C82.7931 349.396 82.5164 347.884 82.2866 346.367C82.2484 346.114 82.205 345.858 82.1741 345.603C82.1559 345.422 82.1377 345.243 82.13 345.176C82.0133 344.152 81.9183 343.126 81.8443 342.097C81.6015 338.722 81.5876 335.33 81.7727 331.953C81.8616 330.33 81.9964 328.711 82.1732 327.1C82.2216 326.657 82.2772 326.218 82.3276 325.777C82.335 325.712 82.3411 325.658 82.3467 325.608C82.3535 325.563 82.3611 325.515 82.3697 325.459C82.5026 324.577 82.6329 323.698 82.7821 322.821C83.3563 319.444 84.1001 316.094 84.9824 312.785C85.8689 309.458 86.896 306.169 88.0365 302.921C88.6071 301.296 89.2065 299.682 89.8314 298.077C90.1297 297.313 90.4339 296.549 90.744 295.787C90.9125 295.374 91.0747 294.953 91.2554 294.544C90.7152 295.769 91.4907 293.997 91.5834 293.782C93.8947 288.425 96.5042 283.209 99.371 278.132C102.345 272.863 105.576 267.743 109.007 262.766C110.777 260.198 112.6 257.669 114.473 255.176C114.719 254.85 114.966 254.523 115.214 254.195C115.266 254.127 115.413 253.935 115.537 253.772C115.94 253.246 116.349 252.723 116.758 252.204C117.821 250.852 118.899 249.509 119.99 248.18C128.006 238.418 136.769 229.254 146.245 220.912C148.546 218.886 150.89 216.91 153.279 214.991C153.894 214.498 154.514 214.01 155.132 213.522C155.162 213.499 155.187 213.478 155.212 213.459C155.233 213.443 155.254 213.427 155.278 213.408C155.589 213.171 155.898 212.933 156.209 212.697C157.442 211.76 158.686 210.84 159.943 209.937C164.576 206.607 169.375 203.471 174.378 200.728C175.71 199.997 177.07 199.318 178.455 198.692C178.529 198.659 178.727 198.568 178.905 198.486C179.207 198.357 179.514 198.238 179.818 198.118C180.581 197.817 181.35 197.533 182.124 197.264C185.074 196.242 188.104 195.455 191.177 194.911C191.576 194.841 191.976 194.774 192.377 194.712C192.431 194.704 192.523 194.686 192.627 194.665C193.253 194.539 193.922 194.516 194.556 194.457C196.166 194.307 197.783 194.224 199.399 194.206C201.016 194.189 202.633 194.238 204.246 194.354C204.918 194.401 205.59 194.461 206.26 194.532C206.652 194.574 207.081 194.584 207.466 194.672C205.955 194.327 207.723 194.717 208.035 194.768C211.112 195.267 214.15 196.009 217.111 196.989C218.442 197.429 219.79 197.891 221.076 198.457C221.26 198.543 221.477 198.643 221.555 198.678C221.869 198.82 222.181 198.965 222.492 199.112C223.304 199.496 224.107 199.898 224.9 200.319C229.955 203.001 234.788 206.154 239.45 209.469C240.602 210.289 241.745 211.123 242.877 211.971C243.503 212.438 244.122 212.912 244.743 213.385C244.776 213.411 244.808 213.435 244.837 213.457C244.853 213.47 244.869 213.483 244.889 213.498C245.249 213.782 245.611 214.065 245.971 214.351C248.419 216.294 250.82 218.297 253.173 220.353C257.898 224.477 262.441 228.809 266.808 233.312C271.23 237.873 275.473 242.613 279.523 247.509C280.491 248.675 281.445 249.853 282.39 251.037C282.903 251.684 283.413 252.33 283.92 252.981C284.16 253.289 284.401 253.596 284.637 253.906C284.768 254.077 284.901 254.254 284.955 254.326C286.883 256.867 288.762 259.448 290.584 262.068C297.341 271.792 303.387 282.065 308.132 292.933C308.31 293.342 308.488 293.751 308.663 294.162C308.737 294.338 309.349 295.706 308.812 294.513C309.118 295.193 309.381 295.894 309.658 296.585C310.353 298.321 311.017 300.068 311.649 301.827C312.837 305.136 313.912 308.49 314.842 311.883C315.746 315.188 316.518 318.533 317.121 321.908C317.251 322.638 317.375 323.37 317.49 324.103C317.56 324.543 317.62 324.984 317.688 325.423C317.697 325.481 317.704 325.533 317.71 325.579C317.717 325.628 317.724 325.68 317.731 325.741C317.933 327.504 318.118 329.265 318.235 331.035C318.446 334.267 318.478 337.511 318.304 340.745C318.217 342.364 318.066 343.975 317.886 345.587C317.877 345.671 317.87 345.738 317.863 345.797C317.859 345.829 317.854 345.863 317.848 345.899C317.78 346.337 317.717 346.776 317.645 347.214C317.501 348.091 317.339 348.966 317.164 349.836C316.59 352.603 315.829 355.322 314.873 357.98C314.673 358.534 314.466 359.088 314.25 359.637ZM309.541 271.787C303.04 260.424 295.372 249.742 287.029 239.677C278.673 229.598 269.517 220.156 259.593 211.627C254.679 207.404 249.573 203.388 244.277 199.659C239.367 196.202 234.26 192.859 228.873 190.194C216.266 183.954 202.135 182.001 188.306 184.449C175.636 186.693 164.488 193.347 154.18 200.793C143.593 208.441 133.771 217.133 124.728 226.565C107.06 244.993 91.5267 266.308 81.5579 289.951C70.8361 315.382 65.3024 345.544 79.2829 370.896C84.8894 381.061 93.4579 390.131 103.956 395.222C114.91 400.531 126.93 401.209 138.656 398.278C149.675 395.52 159.846 390.125 170.2 385.59C170.777 385.337 171.355 385.089 171.933 384.84C172.237 384.713 172.54 384.587 172.844 384.46C174.273 383.87 175.711 383.301 177.159 382.76C179.726 381.802 182.327 380.934 184.967 380.202C187.727 379.438 190.52 378.852 193.349 378.416C193.371 378.414 193.392 378.412 193.417 378.409C193.78 378.371 194.142 378.326 194.506 378.287C195.114 378.226 195.724 378.174 196.334 378.134C197.942 378.023 199.555 377.982 201.166 378.014C202.52 378.043 203.872 378.122 205.22 378.249C205.548 378.278 207.22 378.247 207.395 378.493C207.157 378.461 206.918 378.43 206.679 378.398C206.918 378.434 207.157 378.468 207.396 378.507C207.873 378.581 208.348 378.66 208.822 378.746C211.531 379.232 214.205 379.894 216.841 380.685C219.577 381.506 222.27 382.467 224.929 383.509C225.935 383.904 227.107 384.234 228.097 384.734C228.239 384.824 228.448 384.944 228.583 385.003C228.909 385.143 229.235 385.285 229.562 385.428C230.324 385.758 231.083 386.094 231.841 386.434C242.112 391.017 252.332 396.322 263.395 398.709C275.203 401.259 287.265 400.086 297.964 394.27C308.233 388.687 316.538 379.393 321.796 368.993C324.4 363.848 326.407 358.374 327.579 352.721C330.488 338.169 329.158 323.237 325.255 308.999C321.693 296.004 316.219 283.462 309.541 271.787Z" fill="#040606"/>
<path d="M130 388.952C130.224 388.9 130.449 388.85 130.673 388.802C130.604 388.814 130.402 388.857 129.987 388.952C129.992 388.952 129.996 388.952 130 388.952Z" fill="#040606"/>
<path d="M298.016 381.379C298.05 381.355 298.077 381.334 298.106 381.314C298.189 381.244 298.315 381.144 298.439 381.047C298.34 381.113 298.07 381.312 298.016 381.379Z" fill="#040606"/>
<path d="M269.965 388.908C269.992 388.913 270.017 388.918 270.042 388.92C270.066 388.924 270.087 388.927 270.107 388.929C270.109 388.929 270.109 388.929 270.109 388.929C268.865 388.639 269.529 388.832 269.965 388.908Z" fill="#040606"/>
<path d="M11.3994 134.151C11.3839 134.262 11.3665 134.375 11.353 134.485C11.3633 134.436 11.3927 134.253 11.4114 134.076C11.4075 134.101 11.4032 134.126 11.3994 134.151Z" fill="#040606"/>
<path d="M66.3004 239.652C66.2506 239.632 66.2011 239.611 66.1516 239.591C65.8141 239.424 65.4517 239.29 65.1099 239.134C63.6872 238.481 62.2911 237.774 60.9224 237.014C58.2185 235.513 55.6238 233.818 53.1398 231.974C52.9015 231.797 52.666 231.616 52.4299 231.438C52.3125 231.336 52.1768 231.244 52.0567 231.149C51.4354 230.654 50.821 230.15 50.2137 229.636C48.998 228.61 47.8105 227.55 46.6501 226.463C44.3745 224.328 42.2077 222.079 40.1291 219.75C39.0536 218.545 38.0029 217.318 36.9773 216.07C36.4648 215.446 35.9583 214.817 35.4586 214.183C35.2696 213.943 35.0869 213.695 34.8943 213.457C34.7955 213.326 34.6965 213.196 34.5984 213.065C30.7552 207.947 27.3198 202.521 24.3237 196.862C22.8396 194.058 21.4636 191.197 20.1988 188.288C20.0614 187.972 19.9302 187.652 19.7923 187.336C19.7467 187.226 19.701 187.115 19.6558 187.004C19.3501 186.255 19.0519 185.503 18.7609 184.748C18.1788 183.239 17.6264 181.718 17.1038 180.187C15.0339 174.122 13.434 167.895 12.3358 161.578C12.2078 160.843 12.0867 160.106 11.9724 159.367C11.9153 158.999 11.8599 158.628 11.8062 158.26C11.7837 158.104 11.762 157.95 11.7401 157.794C11.623 156.266 11.3737 154.74 11.2364 153.21C10.9351 149.853 10.7781 146.483 10.8108 143.115C10.8274 141.409 10.8929 139.705 11.0154 138.002C11.0717 137.218 11.1402 136.436 11.2215 135.654C11.2621 135.265 11.3058 134.874 11.353 134.485C11.3436 134.531 11.3498 134.465 11.3944 134.18C11.3959 134.171 11.3978 134.16 11.3995 134.151C11.4109 134.067 11.422 133.984 11.4259 133.902C11.4234 133.954 11.418 134.015 11.4114 134.076C11.931 130.776 12.646 127.517 13.71 124.346C13.9565 123.611 14.2198 122.883 14.5006 122.16C14.5267 122.094 14.5533 122.026 14.5802 121.961C14.8338 121.565 14.9786 121.025 15.175 120.605C15.8318 119.203 16.557 117.831 17.3684 116.513C17.7568 115.881 18.1636 115.261 18.5883 114.653C18.7849 114.373 18.9883 114.097 19.1892 113.819C19.1928 113.815 19.1957 113.81 19.1993 113.806C19.2259 113.772 19.2548 113.736 19.2889 113.695C20.2224 112.533 21.2227 111.425 22.2841 110.381C22.7735 109.9 23.2759 109.432 23.7907 108.978C24.0476 108.752 24.3078 108.528 24.571 108.308C24.6977 108.205 24.8262 108.101 24.9531 107.994C26.0544 107.192 27.1716 106.421 28.3512 105.734C28.9839 105.366 29.6288 105.02 30.2847 104.694C30.5864 104.545 30.8902 104.4 31.1964 104.26C31.2452 104.238 31.2864 104.217 31.3242 104.201C32.6688 103.686 34.0289 103.232 35.4318 102.902C36.0566 102.755 36.6862 102.64 37.318 102.529C37.7486 102.49 38.1786 102.447 38.6106 102.423C40.0083 102.346 41.3768 102.432 42.768 102.536C42.792 102.538 42.817 102.54 42.8406 102.545C43.2486 102.612 43.6549 102.689 44.0592 102.775C44.8074 102.933 45.5485 103.126 46.2816 103.343C46.9572 103.544 47.6257 103.77 48.2861 104.016C48.4301 104.07 48.5732 104.127 48.717 104.181C49.0088 104.317 49.3092 104.437 49.599 104.574C52.3654 105.885 54.7191 107.667 57.2576 109.332C57.3086 109.373 57.3595 109.414 57.4103 109.454C57.7413 109.723 58.0689 109.995 58.394 110.27C58.9991 110.784 59.5944 111.308 60.1806 111.841C61.3528 112.911 62.4884 114.018 63.5936 115.155C65.7835 117.411 67.861 119.775 69.8639 122.198C70.3805 122.822 70.8917 123.453 71.3969 124.086C71.6302 124.379 71.8622 124.671 72.093 124.967C72.1884 125.087 72.2829 125.209 72.3781 125.331C73.3238 126.581 74.2573 127.838 75.1645 129.115C78.8838 134.35 82.2419 139.842 85.2164 145.538C86.6895 148.359 88.0685 151.23 89.351 154.144C89.502 154.485 89.6516 154.828 89.7999 155.172C89.8501 155.29 89.9 155.407 89.95 155.522C90.2211 156.25 90.5453 156.962 90.832 157.683C91.4314 159.191 92.0056 160.71 92.5541 162.238C94.7265 168.289 96.4948 174.487 97.8381 180.777C98.5029 183.89 99.0634 187.027 99.5173 190.179C99.5339 190.295 99.594 190.733 99.623 190.941C99.6545 191.188 99.6887 191.453 99.697 191.521C99.7967 192.327 99.8892 193.134 99.9747 193.941C100.146 195.555 100.289 197.173 100.403 198.793C100.881 205.544 100.93 212.35 100.191 219.083C100.183 219.152 100.177 219.208 100.173 219.253C100.172 219.26 100.171 219.265 100.17 219.272C100.109 219.678 100.049 220.084 99.9821 220.49C99.8376 221.366 99.6734 222.238 99.4878 223.107C99.1172 224.838 98.6604 226.551 98.1018 228.233C97.8437 229.008 97.564 229.777 97.2621 230.536C97.1934 230.708 96.873 231.542 97.1442 230.837C97.3959 230.181 97.1505 230.816 97.0967 230.932C96.9144 231.325 96.7344 231.716 96.5382 232.102C96.2365 232.695 95.9112 233.276 95.5624 233.843C95.3896 234.125 95.2112 234.401 95.0271 234.677C94.927 234.826 94.5616 235.321 94.4471 235.488C94.3838 235.565 94.3283 235.633 94.2997 235.669C94.0909 235.918 93.8774 236.162 93.6589 236.402C93.188 236.919 92.6952 237.417 92.182 237.893C91.9066 238.149 91.6253 238.395 91.3387 238.639C91.3074 238.664 91.2482 238.714 91.1794 238.77C91.0311 238.879 90.7442 239.094 90.6536 239.157C90.3478 239.372 90.0375 239.577 89.7223 239.779C89.1827 240.12 88.6295 240.439 88.0652 240.737C87.736 240.911 87.4025 241.078 87.0659 241.236C87.0292 241.255 86.9921 241.27 86.9552 241.288C85.6462 241.639 84.408 242.19 83.0672 242.475C82.7599 242.538 82.4512 242.599 82.1416 242.651C81.5448 242.67 80.9407 242.771 80.3431 242.792C79.6353 242.816 78.9265 242.81 78.2193 242.771C77.8902 242.753 77.5617 242.728 77.2334 242.699C77.1812 242.692 77.1369 242.69 77.0961 242.685C74.1151 242.066 71.1977 241.442 68.3182 240.416C67.6405 240.176 66.9677 239.921 66.3004 239.652ZM11.7399 157.792C11.727 157.701 11.714 157.611 11.7011 157.52C11.6037 156.833 11.7084 157.464 11.7399 157.792ZM90.0137 155.672C90.0164 155.678 90.0188 155.683 90.0213 155.69C90.2985 156.334 90.1385 155.968 90.0137 155.672ZM86.8855 241.32C86.8006 241.359 86.7158 241.397 86.6312 241.438C86.0806 241.691 86.5822 241.442 86.8855 241.32ZM74.3151 253.167C74.5779 253.221 74.8445 253.257 75.1127 253.277C81.7957 254.136 88.4449 253.069 94.3537 249.643C97.1318 248.031 99.7449 245.918 101.832 243.465C104.344 240.511 106.064 237.38 107.523 233.802C110.437 226.646 111.358 218.737 111.522 211.059C111.667 204.224 111.263 197.37 110.379 190.592C108.54 176.492 104.808 162.927 99.1995 149.869C93.7604 137.205 86.4784 125.444 77.7387 114.816C69.0733 104.276 58.1825 93.7519 44.1144 91.8533C30.0435 89.9546 16.854 98.1098 9.0678 109.459C0.828893 121.47 -0.758066 137.166 0.28397 151.347C1.32662 165.538 4.76254 179.307 10.2861 192.391C15.6238 205.035 23.0426 216.736 32.1209 227.003C41.217 237.292 52.2751 246.141 65.278 250.818C68.1154 251.837 70.9894 252.473 73.9254 253.085C74.0525 253.117 74.1817 253.146 74.3151 253.167Z" fill="#040606"/>
</g>
<defs>
<clipPath id="clip0_58_47">
<rect width="400" height="400" fill="white"/>
</clipPath>
</defs>
</svg>
