<svg width="126" height="126" viewBox="0 0 126 126" fill="none" xmlns="http://www.w3.org/2000/svg">
<g clip-path="url(#clip0_0_752)">
<path fill-rule="evenodd" clip-rule="evenodd" d="M63 126C97.7939 126 126 97.7939 126 63C126 28.2061 97.7939 0 63 0C28.2061 0 0 28.2061 0 63C0 97.7939 28.2061 126 63 126Z" fill="#E2FBD7"/>
<path fill-rule="evenodd" clip-rule="evenodd" d="M62.9873 0C60.469 0 58.4276 2.04391 58.4276 4.56522C58.4276 7.08652 60.469 9.13043 62.9873 9.13043C92.7022 9.13043 116.791 33.2487 116.791 63C116.791 92.7513 92.7022 116.87 62.9873 116.87C48.8017 116.87 35.4957 111.355 25.5192 101.661C23.7121 99.9045 20.8254 99.9478 19.0716 101.757C17.3178 103.566 17.3609 106.457 19.168 108.212C30.8296 119.544 46.4062 126 62.9873 126C97.7386 126 125.91 97.7939 125.91 63C125.91 28.2061 97.7386 0 62.9873 0Z" fill="#34B53A"/>
<path d="M50.9184 70.24C49.9051 70.24 49.0518 70.0533 48.3584 69.68C47.6651 69.2933 47.1051 68.78 46.6784 68.14C46.2651 67.5 45.9584 66.7867 45.7584 66C45.5718 65.2 45.4784 64.3867 45.4784 63.56C45.4784 62.0133 45.6918 60.66 46.1184 59.5C46.5451 58.3267 47.1584 57.4133 47.9584 56.76C48.7718 56.0933 49.7518 55.76 50.8984 55.76C51.7784 55.76 52.5318 55.9333 53.1584 56.28C53.7851 56.6267 54.2784 57.0933 54.6384 57.68C55.0118 58.2533 55.2451 58.8933 55.3384 59.6H53.7784C53.6318 58.84 53.3051 58.2533 52.7984 57.84C52.2918 57.4267 51.6518 57.22 50.8784 57.22C49.8251 57.22 48.9384 57.72 48.2184 58.72C47.5118 59.7067 47.1318 61.2533 47.0784 63.36C47.3984 62.7333 47.9051 62.1933 48.5984 61.74C49.3051 61.2733 50.1518 61.04 51.1384 61.04C51.9384 61.04 52.6851 61.2267 53.3784 61.6C54.0851 61.9733 54.6584 62.5 55.0984 63.18C55.5384 63.8467 55.7584 64.6333 55.7584 65.54C55.7584 66.3267 55.5651 67.08 55.1784 67.8C54.7918 68.52 54.2318 69.1067 53.4984 69.56C52.7784 70.0133 51.9184 70.24 50.9184 70.24ZM50.7984 68.76C51.4251 68.76 51.9851 68.6267 52.4784 68.36C52.9718 68.0933 53.3584 67.7267 53.6384 67.26C53.9184 66.78 54.0584 66.2333 54.0584 65.62C54.0584 64.6733 53.7451 63.92 53.1184 63.36C52.5051 62.7867 51.7318 62.5 50.7984 62.5C50.1718 62.5 49.6118 62.6467 49.1184 62.94C48.6251 63.22 48.2318 63.6 47.9384 64.08C47.6584 64.56 47.5184 65.08 47.5184 65.64C47.5184 66.24 47.6584 66.78 47.9384 67.26C48.2318 67.7267 48.6251 68.0933 49.1184 68.36C49.6118 68.6267 50.1718 68.76 50.7984 68.76ZM59.1087 70L64.6688 57.44H56.9888V56H66.3888V57.26L60.8888 70H59.1087ZM71.1328 62.5C70.5328 62.5 69.9861 62.3667 69.4928 62.1C69.0128 61.82 68.6328 61.4333 68.3528 60.94C68.0728 60.4333 67.9328 59.8333 67.9328 59.14C67.9328 58.4467 68.0728 57.8533 68.3528 57.36C68.6461 56.8533 69.0328 56.4667 69.5128 56.2C70.0061 55.92 70.5528 55.78 71.1528 55.78C71.7528 55.78 72.2928 55.92 72.7728 56.2C73.2528 56.4667 73.6328 56.8533 73.9128 57.36C74.1928 57.8533 74.3328 58.4467 74.3328 59.14C74.3328 59.8333 74.1861 60.4333 73.8928 60.94C73.6128 61.4333 73.2328 61.82 72.7528 62.1C72.2728 62.3667 71.7328 62.5 71.1328 62.5ZM69.8928 70L78.0328 56H79.7128L71.5728 70H69.8928ZM71.1328 61.2C71.5995 61.2 72.0061 61.0267 72.3528 60.68C72.7128 60.3333 72.8928 59.82 72.8928 59.14C72.8928 58.4467 72.7195 57.9267 72.3728 57.58C72.0261 57.22 71.6195 57.04 71.1528 57.04C70.6861 57.04 70.2661 57.22 69.8928 57.58C69.5328 57.9267 69.3528 58.4467 69.3528 59.14C69.3528 59.82 69.5328 60.3333 69.8928 60.68C70.2528 61.0267 70.6661 61.2 71.1328 61.2ZM78.6128 70.24C78.0128 70.24 77.4661 70.1067 76.9728 69.84C76.4928 69.56 76.1128 69.1733 75.8328 68.68C75.5528 68.1733 75.4128 67.5733 75.4128 66.88C75.4128 66.1867 75.5528 65.5933 75.8328 65.1C76.1261 64.5933 76.5128 64.2067 76.9928 63.94C77.4728 63.66 78.0128 63.52 78.6128 63.52C79.2128 63.52 79.7528 63.66 80.2328 63.94C80.7128 64.2067 81.0928 64.5933 81.3728 65.1C81.6528 65.5933 81.7928 66.1867 81.7928 66.88C81.7928 67.5733 81.6528 68.1733 81.3728 68.68C81.0928 69.1733 80.7128 69.56 80.2328 69.84C79.7528 70.1067 79.2128 70.24 78.6128 70.24ZM78.5928 68.94C79.0728 68.94 79.4861 68.7667 79.8328 68.42C80.1928 68.0733 80.3728 67.56 80.3728 66.88C80.3728 66.1867 80.1995 65.6667 79.8528 65.32C79.5061 64.9733 79.0928 64.8 78.6128 64.8C78.1461 64.8 77.7328 64.9733 77.3728 65.32C77.0128 65.6667 76.8328 66.1867 76.8328 66.88C76.8328 67.56 77.0061 68.0733 77.3528 68.42C77.7128 68.7667 78.1261 68.94 78.5928 68.94Z" fill="black"/>
</g>
<defs>
<clipPath id="clip0_0_752">
<rect width="126" height="126" fill="white"/>
</clipPath>
</defs>
</svg>
